<?xml version="1.0" encoding="iso-8859-1"?>
<!-- Generator: Adobe Illustrator 19.0.0, SVG Export Plug-In . SVG Version: 6.00 Build 0)  -->
<svg version="1.1" id="Layer_1" xmlns="http://www.w3.org/2000/svg" xmlns:xlink="http://www.w3.org/1999/xlink" x="0px" y="0px"
	 viewBox="0 0 512 512" style="enable-background:new 0 0 512 512;" xml:space="preserve">
<g>
	<g>
		<g>
			<path d="M212.907,440.93c-34.536-7.985-66.078-25.491-91.212-50.626c-4.301-4.299-11.271-4.299-15.573,0
				c-4.3,4.3-4.3,11.272,0,15.573c28.054,28.054,63.263,47.595,101.823,56.509c0.836,0.193,1.669,0.285,2.491,0.285
				c5.01,0,9.541-3.443,10.718-8.533C222.525,448.214,218.832,442.3,212.907,440.93z"/>
			<path d="M278.707,444.492c-3.678,0.438-7.419,0.775-11.123,0.999c-6.07,0.367-10.694,5.586-10.326,11.655
				c0.352,5.844,5.203,10.347,10.98,10.347c0.224,0,0.449-0.007,0.675-0.021c4.13-0.25,8.303-0.624,12.405-1.115
				c6.039-0.719,10.349-6.199,9.628-12.237C290.225,448.081,284.744,443.766,278.707,444.492z"/>
			<path d="M298.55,48.419c-5.961-1.212-11.773,2.636-12.985,8.595c-1.211,5.958,2.636,11.772,8.595,12.984
				c36.504,7.428,69.751,25.304,96.144,51.698c2.15,2.15,4.968,3.225,7.786,3.225c2.818,0,5.635-1.076,7.786-3.225
				c4.3-4.3,4.3-11.272,0-15.571C376.415,76.665,339.303,56.711,298.55,48.419z"/>
			<path d="M230.303,45.687c-3.037,0.368-6.109,0.807-9.131,1.307c-6,0.992-10.06,6.659-9.068,12.659
				c0.892,5.392,5.558,9.217,10.85,9.217c0.596,0,1.2-0.048,1.808-0.149c2.712-0.448,5.468-0.842,8.191-1.173
				c6.036-0.731,10.338-6.218,9.607-12.255C241.827,49.257,236.341,44.95,230.303,45.687z"/>
			<path d="M256,300.043c24.285,0,44.043-19.758,44.043-44.043S280.285,211.957,256,211.957S211.957,231.715,211.957,256
				S231.715,300.043,256,300.043z M234.514,251.228c2.011-9.055,9.604-16.025,18.974-17.095c0.092-0.011,1.757-0.154,2.512-0.154
				c12.143,0,22.022,9.879,22.022,22.021c0.001,0.678-0.516,4.684-0.558,4.863c-2.041,9.008-9.607,15.931-18.941,17.003
				c-0.097,0.011-1.768,0.155-2.523,0.155c-12.143,0-22.021-9.879-22.021-22.022C233.977,255.317,234.482,251.369,234.514,251.228z"
				/>
			<path d="M437.018,74.982C388.665,26.63,324.379,0,256,0C187.61,0,123.324,26.63,74.982,74.981v0.001
				C43.156,106.81,20.227,146.49,8.675,189.736c0,0.002-0.001,0.005-0.001,0.008C2.918,211.238,0,233.529,0,256
				c0,68.379,26.63,132.665,74.982,181.018C123.336,485.37,187.621,512,256,512c68.39,0,132.677-26.63,181.019-74.983
				c0.002-0.002,0.003-0.004,0.007-0.007c31.828-31.83,54.755-71.509,66.308-114.746c0.001-0.003,0.002-0.007,0.003-0.01
				C509.085,300.747,512,278.455,512,256C512,187.621,485.37,123.335,437.018,74.982z M82.951,98.522l97.616,97.616
				c-5.849,7.355-10.65,15.58-14.168,24.448L33.043,184.857C43.225,152.929,60.277,123.429,82.951,98.522z M256,489.979
				C126.984,489.979,22.021,385.016,22.021,256c0-16.842,1.791-33.57,5.333-49.869l133.344,35.725
				c-0.683,4.618-1.041,9.339-1.041,14.143c0,53.125,43.219,96.344,96.344,96.344c22.603,0,43.411-7.828,59.862-20.911l97.621,97.62
				C370.325,468.424,314.823,489.979,256,489.979z M181.677,256c0-40.982,33.341-74.323,74.323-74.323
				c40.982,0,74.323,33.341,74.323,74.323c0,40.982-33.341,74.323-74.323,74.323C215.018,330.323,181.677,296.982,181.677,256z
				 M429.049,413.478l-97.616-97.616c5.851-7.359,10.653-15.586,14.171-24.458l133.363,35.728
				C468.786,359.06,451.728,388.565,429.049,413.478z M484.653,305.857l-133.348-35.724c0.682-4.614,1.039-9.332,1.039-14.131
				c0-53.125-43.219-96.344-96.344-96.344c-22.604,0-43.411,7.828-59.862,20.911L98.516,82.946
				C141.675,43.576,197.177,22.021,256,22.021c129.016,0,233.979,104.962,233.979,233.979
				C489.979,272.829,488.189,289.552,484.653,305.857z"/>
		</g>
	</g>
</g>
<g>
</g>
<g>
</g>
<g>
</g>
<g>
</g>
<g>
</g>
<g>
</g>
<g>
</g>
<g>
</g>
<g>
</g>
<g>
</g>
<g>
</g>
<g>
</g>
<g>
</g>
<g>
</g>
<g>
</g>
</svg>
