<?xml version="1.0" encoding="iso-8859-1"?>
<!-- Generator: Adobe Illustrator 18.1.1, SVG Export Plug-In . SVG Version: 6.00 Build 0)  -->
<svg version="1.1" id="Capa_1" xmlns="http://www.w3.org/2000/svg" xmlns:xlink="http://www.w3.org/1999/xlink" x="0px" y="0px"
	 viewBox="0 0 13.709 13.709" style="enable-background:new 0 0 13.709 13.709;" xml:space="preserve">
<g>
	<g>
		<path style="fill:#030104;" d="M0.481,7.99h12.747c0.194,0,0.37-0.117,0.444-0.297c0.075-0.181,0.033-0.387-0.104-0.524
			L7.194,0.796c-0.18-0.181-0.499-0.181-0.68,0L0.141,7.169C0.003,7.307-0.038,7.513,0.037,7.693C0.111,7.873,0.287,7.99,0.481,7.99
			z"/>
		<path style="fill:#030104;" d="M13.228,9.796H0.481c-0.266,0-0.48,0.216-0.48,0.48v2.291c0,0.266,0.215,0.481,0.48,0.481h12.747
			c0.266,0,0.48-0.216,0.48-0.481v-2.291C13.709,10.012,13.494,9.796,13.228,9.796z"/>
	</g>
</g>
<g>
</g>
<g>
</g>
<g>
</g>
<g>
</g>
<g>
</g>
<g>
</g>
<g>
</g>
<g>
</g>
<g>
</g>
<g>
</g>
<g>
</g>
<g>
</g>
<g>
</g>
<g>
</g>
<g>
</g>
</svg>
