<?xml version="1.0" encoding="UTF-8" standalone="yes"?>
<svg xmlns="http://www.w3.org/2000/svg" viewBox="0 0 100 100" width="50" height="50" fill="#000000">
  <path d="M 31 17 C 23.27961 17 17 23.27961 17 31 L 17 69 C 17 76.72039 23.27961 83 31 83 L 69 83 C 76.72039 83 83 76.72039 83 69 L 83 31 C 83 23.27961 76.72039 17 69 17 L 31 17 z M 31 19 L 69 19 C 75.63961 19 81 24.36039 81 31 L 81 69 C 81 75.63961 75.63961 81 69 81 L 31 81 C 24.36039 81 19 75.63961 19 69 L 19 31 C 19 24.36039 24.36039 19 31 19 z M 34.099609 23 C 27.975367 23 23 27.975367 23 34.099609 L 23 65.900391 C 23 72.024633 27.975367 77 34.099609 77 L 65.900391 77 C 72.024633 77 77 72.024633 77 65.900391 L 77 51.5 A 0.50005 0.50005 0 1 0 76 51.5 L 76 65.900391 C 76 71.484148 71.484148 76 65.900391 76 L 34.099609 76 C 28.515852 76 24 71.484148 24 65.900391 L 24 34.099609 C 24 28.515852 28.515852 24 34.099609 24 L 60.5 24 A 0.50005 0.50005 0 1 0 60.5 23 L 34.099609 23 z M 49.962891 36 C 47.551891 36 45.622781 36.652078 44.175781 37.955078 C 42.728781 39.260078 42.001953 41.305797 42.001953 44.091797 L 42.001953 45.003906 C 42.001953 50.069906 44.55425 52.601562 49.65625 52.601562 C 52.29625 52.601562 54.230891 51.752688 55.462891 50.054688 L 55.462891 55.867188 C 55.462891 59.743187 53.628891 61.681641 49.962891 61.681641 C 48.423891 61.681641 47.129125 61.289906 46.078125 60.503906 C 45.026125 59.719906 44.501953 58.680672 44.501953 57.388672 C 44.501953 56.679672 44.063359 56.324219 43.193359 56.324219 C 42.398359 56.324219 42 56.718906 42 57.503906 C 42 59.276906 42.705187 60.802078 44.117188 62.080078 C 45.526188 63.359078 47.462828 64 49.923828 64 C 52.359828 64 54.312109 63.348922 55.787109 62.044922 C 57.261109 60.739922 58 58.680141 58 55.869141 L 58 44.091797 C 58 41.305797 57.269594 39.261031 55.808594 37.957031 C 54.347594 36.652031 52.397891 36 49.962891 36 z M 49.960938 38.164062 C 51.703938 38.164062 53.057578 38.647281 54.017578 39.613281 C 54.979578 40.579281 55.460938 42.039094 55.460938 43.996094 L 55.460938 45.253906 C 55.460938 48.708906 53.639047 50.4375 49.998047 50.4375 C 48.203047 50.4375 46.846828 49.998094 45.923828 49.121094 C 45.000828 48.245094 44.537109 46.842156 44.537109 44.910156 L 44.537109 43.996094 C 44.537109 40.109094 46.345937 38.164062 49.960938 38.164062 z M 76.492188 38.992188 A 0.50005 0.50005 0 0 0 76 39.5 L 76 41.5 A 0.50005 0.50005 0 1 0 77 41.5 L 77 39.5 A 0.50005 0.50005 0 0 0 76.492188 38.992188 z M 76.492188 43.992188 A 0.50005 0.50005 0 0 0 76 44.5 L 76 48.5 A 0.50005 0.50005 0 1 0 77 48.5 L 77 44.5 A 0.50005 0.50005 0 0 0 76.492188 43.992188 z"/>
</svg>