<?xml version="1.0" encoding="UTF-8" standalone="yes"?>
<svg xmlns="http://www.w3.org/2000/svg" viewBox="0 0 100 100" width="50" height="50" fill="#000000">
  <path d="M 31 17 C 23.27961 17 17 23.27961 17 31 L 17 69 C 17 76.72039 23.27961 83 31 83 L 69 83 C 76.72039 83 83 76.72039 83 69 L 83 31 C 83 23.27961 76.72039 17 69 17 L 31 17 z M 31 19 L 69 19 C 75.63961 19 81 24.36039 81 31 L 81 69 C 81 75.63961 75.63961 81 69 81 L 31 81 C 24.36039 81 19 75.63961 19 69 L 19 31 C 19 24.36039 24.36039 19 31 19 z M 34.099609 23 C 27.975367 23 23 27.975367 23 34.099609 L 23 65.900391 C 23 72.024633 27.975367 77 34.099609 77 L 65.900391 77 C 72.024633 77 77 72.024633 77 65.900391 L 77 51.5 A 0.50005 0.50005 0 1 0 76 51.5 L 76 65.900391 C 76 71.484148 71.484148 76 65.900391 76 L 34.099609 76 C 28.515852 76 24 71.484148 24 65.900391 L 24 34.099609 C 24 28.515852 28.515852 24 34.099609 24 L 60.5 24 A 0.50005 0.50005 0 1 0 60.5 23 L 34.099609 23 z M 44.154297 36 C 43.871297 36 43.608234 36.103641 43.365234 36.306641 C 43.121234 36.510641 43 36.726078 43 36.955078 L 43 42.722656 C 43 42.976656 43.120281 43.200625 43.363281 43.390625 C 43.607281 43.580625 43.908578 43.677734 44.267578 43.677734 C 44.600578 43.677734 44.896344 43.581625 45.152344 43.390625 C 45.408344 43.199625 45.537109 42.976656 45.537109 42.722656 L 45.537109 38.330078 L 56.460938 38.330078 L 56.460938 40.392578 L 44.960938 62.242188 C 44.857938 62.498188 44.806641 62.675344 44.806641 62.777344 C 44.806641 63.134344 44.961531 63.42725 45.269531 63.65625 C 45.577531 63.88525 45.934703 64 46.345703 64 C 46.755703 64 47.037406 63.835906 47.191406 63.503906 L 58.615234 41.347656 C 58.871234 40.965656 59 40.597234 59 40.240234 L 59 36.955078 C 59 36.726078 58.870234 36.510641 58.615234 36.306641 C 58.359234 36.103641 58.090594 36 57.808594 36 L 44.154297 36 z M 76.492188 38.992188 A 0.50005 0.50005 0 0 0 76 39.5 L 76 41.5 A 0.50005 0.50005 0 1 0 77 41.5 L 77 39.5 A 0.50005 0.50005 0 0 0 76.492188 38.992188 z M 76.492188 43.992188 A 0.50005 0.50005 0 0 0 76 44.5 L 76 48.5 A 0.50005 0.50005 0 1 0 77 48.5 L 77 44.5 A 0.50005 0.50005 0 0 0 76.492188 43.992188 z"/>
</svg>