<?xml version="1.0" encoding="UTF-8" standalone="yes"?>
<svg xmlns="http://www.w3.org/2000/svg" viewBox="0 0 100 100" width="50" height="50" fill="#000000">
  <path d="M 31 17 C 23.27961 17 17 23.27961 17 31 L 17 69 C 17 76.72039 23.27961 83 31 83 L 69 83 C 76.72039 83 83 76.72039 83 69 L 83 31 C 83 23.27961 76.72039 17 69 17 L 31 17 z M 31 19 L 69 19 C 75.63961 19 81 24.36039 81 31 L 81 69 C 81 75.63961 75.63961 81 69 81 L 31 81 C 24.36039 81 19 75.63961 19 69 L 19 31 C 19 24.36039 24.36039 19 31 19 z M 34.099609 23 C 27.975367 23 23 27.975367 23 34.099609 L 23 65.900391 C 23 72.024633 27.975367 77 34.099609 77 L 65.900391 77 C 72.024633 77 77 72.024633 77 65.900391 L 77 51.5 A 0.50005 0.50005 0 1 0 76 51.5 L 76 65.900391 C 76 71.484148 71.484148 76 65.900391 76 L 34.099609 76 C 28.515852 76 24 71.484148 24 65.900391 L 24 34.099609 C 24 28.515852 28.515852 24 34.099609 24 L 60.5 24 A 0.50005 0.50005 0 1 0 60.5 23 L 34.099609 23 z M 50 36 C 45.179 36 42.769531 38.19875 42.769531 42.59375 C 42.769531 45.64175 43.909406 47.635219 46.191406 48.574219 C 43.397406 49.691219 42 52.066266 42 55.697266 L 42 56.154297 C 42 58.845297 42.730406 60.826703 44.191406 62.095703 C 45.653406 63.365703 47.589 64 50 64 C 52.41 64 54.346594 63.364703 55.808594 62.095703 C 57.269594 60.825703 58 58.845297 58 56.154297 L 58 55.697266 C 58 52.040266 56.614703 49.665219 53.845703 48.574219 C 56.101703 47.634219 57.230469 45.64075 57.230469 42.59375 C 57.230469 38.19875 54.82 36 50 36 z M 50 38.166016 C 53.179 38.166016 54.769531 39.70425 54.769531 42.78125 C 54.769531 45.90925 53.179 47.474609 50 47.474609 C 46.846 47.474609 45.269531 45.90925 45.269531 42.78125 C 45.269531 39.70325 46.846 38.166016 50 38.166016 z M 76.492188 38.992188 A 0.50005 0.50005 0 0 0 76 39.5 L 76 41.5 A 0.50005 0.50005 0 1 0 77 41.5 L 77 39.5 A 0.50005 0.50005 0 0 0 76.492188 38.992188 z M 76.492188 43.992188 A 0.50005 0.50005 0 0 0 76 44.5 L 76 48.5 A 0.50005 0.50005 0 1 0 77 48.5 L 77 44.5 A 0.50005 0.50005 0 0 0 76.492188 43.992188 z M 49.998047 49.789062 C 53.639047 49.789062 55.460938 51.68375 55.460938 55.46875 L 55.460938 56.003906 C 55.460938 57.935906 54.992641 59.388188 54.056641 60.367188 C 53.120641 61.346188 51.780109 61.835938 50.037109 61.835938 C 48.293109 61.835937 46.942469 61.346187 45.980469 60.367188 C 45.019469 59.388188 44.537109 57.935906 44.537109 56.003906 L 44.537109 55.46875 C 44.537109 51.68375 46.356047 49.789062 49.998047 49.789062 z"/>
</svg>