<?xml version="1.0" encoding="UTF-8" standalone="yes"?>
<svg xmlns="http://www.w3.org/2000/svg" viewBox="0 0 100 100" width="50" height="50" fill="#000000">
  <path d="M 31 17 C 23.27961 17 17 23.27961 17 31 L 17 69 C 17 76.72039 23.27961 83 31 83 L 69 83 C 76.72039 83 83 76.72039 83 69 L 83 31 C 83 23.27961 76.72039 17 69 17 L 31 17 z M 31 19 L 69 19 C 75.63961 19 81 24.36039 81 31 L 81 69 C 81 75.63961 75.63961 81 69 81 L 31 81 C 24.36039 81 19 75.63961 19 69 L 19 31 C 19 24.36039 24.36039 19 31 19 z M 34.099609 23 C 27.975367 23 23 27.975367 23 34.099609 L 23 65.900391 C 23 72.024633 27.975367 77 34.099609 77 L 65.900391 77 C 72.024633 77 77 72.024633 77 65.900391 L 77 51.5 A 0.50005 0.50005 0 1 0 76 51.5 L 76 65.900391 C 76 71.484148 71.484148 76 65.900391 76 L 34.099609 76 C 28.515852 76 24 71.484148 24 65.900391 L 24 34.099609 C 24 28.515852 28.515852 24 34.099609 24 L 60.5 24 A 0.50005 0.50005 0 1 0 60.5 23 L 34.099609 23 z M 50.847656 36 C 50.475656 36 50.144516 36.190266 49.853516 36.572266 L 46.595703 41.009766 C 46.198703 41.342766 46 41.725203 46 42.158203 C 46 42.464203 46.098828 42.725406 46.298828 42.941406 C 46.497828 43.158406 46.741203 43.267578 47.033203 43.267578 C 47.324203 43.267578 47.577062 43.114594 47.789062 42.808594 L 49.378906 40.322266 L 49.378906 63.005859 C 49.378906 63.311859 49.503859 63.554422 49.755859 63.732422 C 50.007859 63.911422 50.318453 64 50.689453 64 C 51.033453 64 51.338516 63.911422 51.603516 63.732422 C 51.867516 63.554422 52 63.311859 52 63.005859 L 52 36.955078 C 52 36.674078 51.881578 36.445578 51.642578 36.267578 C 51.403578 36.089578 51.139656 36 50.847656 36 z M 76.492188 38.992188 A 0.50005 0.50005 0 0 0 76 39.5 L 76 41.5 A 0.50005 0.50005 0 1 0 77 41.5 L 77 39.5 A 0.50005 0.50005 0 0 0 76.492188 38.992188 z M 76.492188 43.992188 A 0.50005 0.50005 0 0 0 76 44.5 L 76 48.5 A 0.50005 0.50005 0 1 0 77 48.5 L 77 44.5 A 0.50005 0.50005 0 0 0 76.492188 43.992188 z"/>
</svg>