<?xml version="1.0" encoding="UTF-8" standalone="yes"?>
<svg xmlns="http://www.w3.org/2000/svg" viewBox="0 0 100 100" width="50" height="50" fill="#000000">
  <path d="M 31 17 C 23.27961 17 17 23.27961 17 31 L 17 69 C 17 76.72039 23.27961 83 31 83 L 69 83 C 76.72039 83 83 76.72039 83 69 L 83 31 C 83 23.27961 76.72039 17 69 17 L 31 17 z M 31 19 L 69 19 C 75.63961 19 81 24.36039 81 31 L 81 69 C 81 75.63961 75.63961 81 69 81 L 31 81 C 24.36039 81 19 75.63961 19 69 L 19 31 C 19 24.36039 24.36039 19 31 19 z M 34.099609 23 C 27.975367 23 23 27.975367 23 34.099609 L 23 65.900391 C 23 72.024633 27.975367 77 34.099609 77 L 65.900391 77 C 72.024633 77 77 72.024633 77 65.900391 L 77 51.5 A 0.50005 0.50005 0 1 0 76 51.5 L 76 65.900391 C 76 71.484148 71.484148 76 65.900391 76 L 34.099609 76 C 28.515852 76 24 71.484148 24 65.900391 L 24 34.099609 C 24 28.515852 28.515852 24 34.099609 24 L 60.5 24 A 0.50005 0.50005 0 1 0 60.5 23 L 34.099609 23 z M 50.191406 36 C 48.755406 36 47.512891 36.215484 46.462891 36.646484 C 45.411891 37.078484 44.628234 37.631687 44.115234 38.304688 C 43.602234 38.977688 43.232953 39.634531 43.001953 40.269531 C 42.770953 40.905531 42.654297 41.528672 42.654297 42.138672 C 42.654297 42.693672 42.751359 43.071438 42.943359 43.273438 C 43.135359 43.475437 43.475891 43.576172 43.962891 43.576172 C 44.783891 43.576172 45.193359 43.173234 45.193359 42.365234 C 45.193359 41.307234 45.564594 40.367875 46.308594 39.546875 C 47.052594 38.726875 48.320234 38.316406 50.115234 38.316406 C 51.730234 38.316406 52.910297 38.713813 53.654297 39.507812 C 54.397297 40.301812 54.769531 41.531266 54.769531 43.197266 C 54.769531 44.988266 54.371172 46.243891 53.576172 46.962891 C 52.781172 47.682891 51.577891 48.041016 49.962891 48.041016 C 49.320891 48.041016 49 48.408578 49 49.142578 C 49 49.852578 49.333 50.207031 50 50.207031 C 51.717 50.207031 53.057531 50.624938 54.019531 51.460938 C 54.980531 52.296938 55.460938 53.562766 55.460938 55.259766 L 55.460938 55.980469 C 55.460937 59.779469 53.615828 61.679688 49.923828 61.679688 C 48.025828 61.679688 46.645109 61.236609 45.787109 60.349609 C 44.928109 59.463609 44.5 58.501891 44.5 57.462891 C 44.5 56.753891 44.062406 56.398438 43.191406 56.398438 C 42.755406 56.398438 42.448531 56.493594 42.269531 56.683594 C 42.089531 56.873594 42 57.222516 42 57.728516 C 42 59.324516 42.691172 60.7695 44.076172 62.0625 C 45.461172 63.3545 47.424891 64 49.962891 64 C 52.371891 64 54.313109 63.3535 55.787109 62.0625 C 57.261109 60.7705 58 58.745375 58 55.984375 L 58 55.261719 C 58 52.197719 56.691172 50.145422 54.076172 49.107422 C 55.024172 48.652422 55.788234 47.882875 56.365234 46.796875 C 56.942234 45.711875 57.230469 44.349031 57.230469 42.707031 C 57.230469 38.236031 54.883406 36 50.191406 36 z M 76.492188 38.992188 A 0.50005 0.50005 0 0 0 76 39.5 L 76 41.5 A 0.50005 0.50005 0 1 0 77 41.5 L 77 39.5 A 0.50005 0.50005 0 0 0 76.492188 38.992188 z M 76.492188 43.992188 A 0.50005 0.50005 0 0 0 76 44.5 L 76 48.5 A 0.50005 0.50005 0 1 0 77 48.5 L 77 44.5 A 0.50005 0.50005 0 0 0 76.492188 43.992188 z"/>
</svg>