<?xml version="1.0" encoding="UTF-8" standalone="yes"?>
<svg xmlns="http://www.w3.org/2000/svg" viewBox="0 0 100 100" width="50" height="50" fill="#000000">
  <path d="M 31 17 C 23.27961 17 17 23.27961 17 31 L 17 69 C 17 76.72039 23.27961 83 31 83 L 69 83 C 76.72039 83 83 76.72039 83 69 L 83 31 C 83 23.27961 76.72039 17 69 17 L 31 17 z M 31 19 L 69 19 C 75.63961 19 81 24.36039 81 31 L 81 69 C 81 75.63961 75.63961 81 69 81 L 31 81 C 24.36039 81 19 75.63961 19 69 L 19 31 C 19 24.36039 24.36039 19 31 19 z M 34.099609 23 C 27.975367 23 23 27.975367 23 34.099609 L 23 65.900391 C 23 72.024633 27.975367 77 34.099609 77 L 65.900391 77 C 72.024633 77 77 72.024633 77 65.900391 L 77 51.5 A 0.50005 0.50005 0 1 0 76 51.5 L 76 65.900391 C 76 71.484148 71.484148 76 65.900391 76 L 34.099609 76 C 28.515852 76 24 71.484148 24 65.900391 L 24 34.099609 C 24 28.515852 28.515852 24 34.099609 24 L 60.5 24 A 0.50005 0.50005 0 1 0 60.5 23 L 34.099609 23 z M 49.990234 36 C 47.603234 36 45.674078 36.651078 44.205078 37.955078 C 42.735078 39.260078 42 41.305797 42 44.091797 L 42 55.869141 C 42 58.680141 42.735078 60.738969 44.205078 62.042969 C 45.675078 63.347969 47.603234 64 49.990234 64 C 52.378234 64 54.310156 63.348922 55.785156 62.044922 C 57.261156 60.739922 58 58.680141 58 55.869141 L 58 44.091797 C 58 41.305797 57.262156 39.261031 55.785156 37.957031 C 54.310156 36.652031 52.378234 36 49.990234 36 z M 50.001953 38.316406 C 53.616953 38.316406 55.423828 40.241797 55.423828 44.091797 L 55.423828 55.869141 C 55.423828 59.744141 53.617953 61.683594 50.001953 61.683594 C 46.385953 61.683594 44.576172 59.744141 44.576172 55.869141 L 44.576172 44.091797 C 44.576172 40.241797 46.385953 38.316406 50.001953 38.316406 z M 76.492188 38.992188 A 0.50005 0.50005 0 0 0 76 39.5 L 76 41.5 A 0.50005 0.50005 0 1 0 77 41.5 L 77 39.5 A 0.50005 0.50005 0 0 0 76.492188 38.992188 z M 76.492188 43.992188 A 0.50005 0.50005 0 0 0 76 44.5 L 76 48.5 A 0.50005 0.50005 0 1 0 77 48.5 L 77 44.5 A 0.50005 0.50005 0 0 0 76.492188 43.992188 z"/>
</svg>