<?xml version="1.0" encoding="UTF-8" standalone="yes"?>
<svg xmlns="http://www.w3.org/2000/svg" viewBox="0 0 100 100" width="50" height="50" fill="#000000">
  <path d="M 31 17 C 23.27961 17 17 23.27961 17 31 L 17 69 C 17 76.72039 23.27961 83 31 83 L 69 83 C 76.72039 83 83 76.72039 83 69 L 83 31 C 83 23.27961 76.72039 17 69 17 L 31 17 z M 31 19 L 69 19 C 75.63961 19 81 24.36039 81 31 L 81 69 C 81 75.63961 75.63961 81 69 81 L 31 81 C 24.36039 81 19 75.63961 19 69 L 19 31 C 19 24.36039 24.36039 19 31 19 z M 34.099609 23 C 27.975367 23 23 27.975367 23 34.099609 L 23 65.900391 C 23 72.024633 27.975367 77 34.099609 77 L 65.900391 77 C 72.024633 77 77 72.024633 77 65.900391 L 77 51.5 A 0.50005 0.50005 0 1 0 76 51.5 L 76 65.900391 C 76 71.484148 71.484148 76 65.900391 76 L 34.099609 76 C 28.515852 76 24 71.484148 24 65.900391 L 24 34.099609 C 24 28.515852 28.515852 24 34.099609 24 L 60.5 24 A 0.50005 0.50005 0 1 0 60.5 23 L 34.099609 23 z M 52.742188 36 C 52.216187 36 51.826172 36.254672 51.576172 36.763672 L 42.148438 55.683594 C 42.048437 55.861594 42 56.078984 42 56.333984 C 42 57.002984 42.325609 57.335938 42.974609 57.335938 L 52.513672 57.335938 L 52.513672 62.992188 C 52.513672 63.302188 52.632094 63.548516 52.871094 63.728516 C 53.110094 63.908516 53.402906 64 53.753906 64 C 54.078906 64 54.367188 63.908516 54.617188 63.728516 C 54.867188 63.547516 54.994141 63.302188 54.994141 62.992188 L 54.994141 57.335938 L 57.060547 57.335938 C 57.337547 57.335937 57.560328 57.218375 57.736328 56.984375 C 57.911328 56.749375 58.001953 56.471438 58.001953 56.148438 C 58.001953 55.851438 57.918859 55.585563 57.755859 55.351562 C 57.593859 55.116563 57.361547 54.998047 57.060547 54.998047 L 54.994141 54.998047 L 54.994141 47.537109 C 54.994141 47.228109 54.869141 46.989266 54.619141 46.822266 C 54.369141 46.654266 54.080859 46.570312 53.755859 46.570312 C 52.929859 46.570312 52.515625 46.893109 52.515625 47.537109 L 52.515625 54.998047 L 45.154297 54.998047 L 53.830078 37.53125 C 53.905078 37.35325 53.943359 37.186203 53.943359 37.033203 C 53.943359 36.753203 53.811828 36.511641 53.548828 36.306641 C 53.286828 36.103641 53.017187 36 52.742188 36 z M 76.492188 38.992188 A 0.50005 0.50005 0 0 0 76 39.5 L 76 41.5 A 0.50005 0.50005 0 1 0 77 41.5 L 77 39.5 A 0.50005 0.50005 0 0 0 76.492188 38.992188 z M 76.492188 43.992188 A 0.50005 0.50005 0 0 0 76 44.5 L 76 48.5 A 0.50005 0.50005 0 1 0 77 48.5 L 77 44.5 A 0.50005 0.50005 0 0 0 76.492188 43.992188 z"/>
</svg>