<?xml version="1.0" encoding="UTF-8" standalone="yes"?>
<svg xmlns="http://www.w3.org/2000/svg" viewBox="0 0 100 100" width="50" height="50" fill="#000000">
  <path d="M 31 17 C 23.27961 17 17 23.27961 17 31 L 17 69 C 17 76.72039 23.27961 83 31 83 L 69 83 C 76.72039 83 83 76.72039 83 69 L 83 31 C 83 23.27961 76.72039 17 69 17 L 31 17 z M 31 19 L 69 19 C 75.63961 19 81 24.36039 81 31 L 81 69 C 81 75.63961 75.63961 81 69 81 L 31 81 C 24.36039 81 19 75.63961 19 69 L 19 31 C 19 24.36039 24.36039 19 31 19 z M 34.099609 23 C 27.975367 23 23 27.975367 23 34.099609 L 23 65.900391 C 23 72.024633 27.975367 77 34.099609 77 L 65.900391 77 C 72.024633 77 77 72.024633 77 65.900391 L 77 51.5 A 0.50005 0.50005 0 1 0 76 51.5 L 76 65.900391 C 76 71.484148 71.484148 76 65.900391 76 L 34.099609 76 C 28.515852 76 24 71.484148 24 65.900391 L 24 34.099609 C 24 28.515852 28.515852 24 34.099609 24 L 60.5 24 A 0.50005 0.50005 0 1 0 60.5 23 L 34.099609 23 z M 50.076172 36 C 47.614172 36 45.653406 36.652031 44.191406 37.957031 C 42.730406 39.261031 42 41.305797 42 44.091797 L 42 55.869141 C 42 58.680141 42.724828 60.737969 44.173828 62.042969 C 45.621828 63.347969 47.565 64 50 64 C 52.435 64 54.377172 63.348922 55.826172 62.044922 C 57.274172 60.740922 58 58.682094 58 55.871094 L 58 54.958984 C 58 49.918984 55.447703 47.398438 50.345703 47.398438 C 47.729703 47.398438 45.793109 48.232344 44.537109 49.902344 L 44.537109 44.091797 C 44.537109 40.242797 46.358 38.316406 50 38.316406 C 51.539 38.316406 52.832766 38.709141 53.884766 39.494141 C 54.935766 40.279141 55.462891 41.317375 55.462891 42.609375 C 55.462891 43.293375 55.910594 43.636719 56.808594 43.636719 C 57.602594 43.636719 58 43.256094 58 42.496094 C 58 40.724094 57.294766 39.197922 55.884766 37.919922 C 54.473766 36.640922 52.538172 36 50.076172 36 z M 76.492188 38.992188 A 0.50005 0.50005 0 0 0 76 39.5 L 76 41.5 A 0.50005 0.50005 0 1 0 77 41.5 L 77 39.5 A 0.50005 0.50005 0 0 0 76.492188 38.992188 z M 76.492188 43.992188 A 0.50005 0.50005 0 0 0 76 44.5 L 76 48.5 A 0.50005 0.50005 0 1 0 77 48.5 L 77 44.5 A 0.50005 0.50005 0 0 0 76.492188 43.992188 z M 50 49.560547 C 53.641 49.560547 55.462891 51.386156 55.462891 55.035156 L 55.462891 55.943359 C 55.462891 59.769359 53.641 61.681641 50 61.681641 C 46.358 61.681641 44.537109 59.769359 44.537109 55.943359 L 44.537109 54.695312 C 44.537109 51.272313 46.358 49.560547 50 49.560547 z"/>
</svg>