<?xml version="1.0" encoding="UTF-8" standalone="yes"?>
<svg xmlns="http://www.w3.org/2000/svg" viewBox="0 0 100 100" width="50" height="50" fill="#000000">
  <path d="M 31 17 C 23.27961 17 17 23.27961 17 31 L 17 69 C 17 76.72039 23.27961 83 31 83 L 69 83 C 76.72039 83 83 76.72039 83 69 L 83 31 C 83 23.27961 76.72039 17 69 17 L 31 17 z M 31 19 L 69 19 C 75.63961 19 81 24.36039 81 31 L 81 69 C 81 75.63961 75.63961 81 69 81 L 31 81 C 24.36039 81 19 75.63961 19 69 L 19 31 C 19 24.36039 24.36039 19 31 19 z M 34.099609 23 C 27.975367 23 23 27.975367 23 34.099609 L 23 65.900391 C 23 72.024633 27.975367 77 34.099609 77 L 65.900391 77 C 72.024633 77 77 72.024633 77 65.900391 L 77 51.5 A 0.50005 0.50005 0 1 0 76 51.5 L 76 65.900391 C 76 71.484148 71.484148 76 65.900391 76 L 34.099609 76 C 28.515852 76 24 71.484148 24 65.900391 L 24 34.099609 C 24 28.515852 28.515852 24 34.099609 24 L 60.5 24 A 0.50005 0.50005 0 1 0 60.5 23 L 34.099609 23 z M 45.042969 36 C 44.585969 36 44.320141 36.316266 44.244141 36.947266 L 43.523438 47.892578 C 43.523438 47.942578 43.510375 48.069484 43.484375 48.271484 C 43.458375 48.473484 43.445312 48.599391 43.445312 48.650391 C 43.445312 49.282391 43.877281 49.599609 44.738281 49.599609 L 50.019531 49.599609 C 51.716531 49.599609 53.034656 50.068859 53.972656 51.005859 C 54.908656 51.942859 55.378906 53.347656 55.378906 55.222656 L 55.378906 55.943359 C 55.378906 57.869359 54.909656 59.305859 53.972656 60.255859 C 53.035656 61.205859 51.705422 61.681641 49.982422 61.681641 C 48.436422 61.681641 47.157531 61.294484 46.144531 60.521484 C 45.130531 59.748484 44.623047 58.692609 44.623047 57.349609 C 44.623047 56.640609 44.191078 56.285156 43.330078 56.285156 C 42.519078 56.285156 42.115234 56.703063 42.115234 57.539062 C 42.115234 59.363062 42.823187 60.897672 44.242188 62.138672 C 45.660188 63.379672 47.585578 64 50.017578 64 C 52.399578 64 54.306281 63.347922 55.738281 62.044922 C 57.168281 60.739922 57.884766 58.708266 57.884766 55.947266 L 57.884766 55.224609 C 57.884766 52.514609 57.174859 50.540828 55.755859 49.298828 C 54.337859 48.057828 52.424578 47.435547 50.017578 47.435547 L 45.876953 47.435547 L 46.474609 38.318359 L 55.679688 38.318359 C 56.237687 38.318359 56.515625 37.926625 56.515625 37.140625 C 56.515625 36.380625 56.237687 36 55.679688 36 L 45.042969 36 z M 76.492188 38.992188 A 0.50005 0.50005 0 0 0 76 39.5 L 76 41.5 A 0.50005 0.50005 0 1 0 77 41.5 L 77 39.5 A 0.50005 0.50005 0 0 0 76.492188 38.992188 z M 76.492188 43.992188 A 0.50005 0.50005 0 0 0 76 44.5 L 76 48.5 A 0.50005 0.50005 0 1 0 77 48.5 L 77 44.5 A 0.50005 0.50005 0 0 0 76.492188 43.992188 z"/>
</svg>