<?xml version="1.0" encoding="UTF-8" standalone="yes"?>
<svg xmlns="http://www.w3.org/2000/svg" viewBox="0 0 100 100" width="50" height="50" fill="#000000">
  <path d="M 31 17 C 23.27961 17 17 23.27961 17 31 L 17 69 C 17 76.72039 23.27961 83 31 83 L 69 83 C 76.72039 83 83 76.72039 83 69 L 83 31 C 83 23.27961 76.72039 17 69 17 L 31 17 z M 31 19 L 69 19 C 75.63961 19 81 24.36039 81 31 L 81 69 C 81 75.63961 75.63961 81 69 81 L 31 81 C 24.36039 81 19 75.63961 19 69 L 19 31 C 19 24.36039 24.36039 19 31 19 z M 34.099609 23 C 27.975367 23 23 27.975367 23 34.099609 L 23 65.900391 C 23 72.024633 27.975367 77 34.099609 77 L 65.900391 77 C 72.024633 77 77 72.024633 77 65.900391 L 77 51.5 A 0.50005 0.50005 0 1 0 76 51.5 L 76 65.900391 C 76 71.484148 71.484148 76 65.900391 76 L 34.099609 76 C 28.515852 76 24 71.484148 24 65.900391 L 24 34.099609 C 24 28.515852 28.515852 24 34.099609 24 L 60.5 24 A 0.50005 0.50005 0 1 0 60.5 23 L 34.099609 23 z M 49.939453 36 C 47.852453 36 46.106266 36.601781 44.697266 37.800781 C 43.288266 39.001781 42.583984 40.519422 42.583984 42.357422 C 42.583984 43.404422 42.975859 43.927734 43.755859 43.927734 C 44.171859 43.927734 44.503 43.825141 44.75 43.619141 C 44.997 43.412141 45.121094 43.169719 45.121094 42.886719 C 45.121094 41.421719 45.558594 40.294719 46.433594 39.511719 C 47.308594 38.728719 48.451328 38.335938 49.861328 38.335938 C 51.533328 38.335937 52.832766 38.846141 53.759766 39.869141 C 54.685766 40.892141 55.148438 42.071391 55.148438 43.400391 C 55.148438 44.628391 54.691344 45.823328 53.777344 46.986328 C 52.863344 48.151328 51.753266 49.193281 50.447266 50.113281 L 46.609375 52.837891 C 45.329375 53.757891 44.23975 54.767187 43.34375 55.867188 C 42.44875 56.967187 42 58.10525 42 59.28125 L 42 63.001953 C 42 63.282953 42.129625 63.520891 42.390625 63.712891 C 42.649625 63.903891 42.922031 64 43.207031 64 L 57.066406 64 C 57.324406 64 57.544563 63.879719 57.726562 63.636719 C 57.909562 63.395719 58 63.1185 58 62.8125 C 58 62.5055 57.909609 62.238766 57.724609 62.009766 C 57.542609 61.779766 57.320547 61.664062 57.060547 61.664062 L 44.576172 61.664062 L 44.576172 59.285156 C 44.576172 58.492156 44.902687 57.691719 45.554688 56.886719 C 46.206688 56.081719 47.016422 55.35875 47.982422 54.71875 L 51.154297 52.494141 C 52.301297 51.650141 53.358266 50.819953 54.322266 50.001953 C 55.286266 49.181953 56.094094 48.183813 56.746094 47.007812 C 57.398094 45.831813 57.724609 44.603219 57.724609 43.324219 C 57.724609 41.239219 56.986672 39.496656 55.513672 38.097656 C 54.039672 36.698656 52.182453 36 49.939453 36 z M 76.492188 38.992188 A 0.50005 0.50005 0 0 0 76 39.5 L 76 41.5 A 0.50005 0.50005 0 1 0 77 41.5 L 77 39.5 A 0.50005 0.50005 0 0 0 76.492188 38.992188 z M 76.492188 43.992188 A 0.50005 0.50005 0 0 0 76 44.5 L 76 48.5 A 0.50005 0.50005 0 1 0 77 48.5 L 77 44.5 A 0.50005 0.50005 0 0 0 76.492188 43.992188 z"/>
</svg>