<?xml version="1.0" encoding="iso-8859-1"?>
<!-- Generator: Adobe Illustrator 18.0.0, SVG Export Plug-In . SVG Version: 6.00 Build 0)  -->
<!DOCTYPE svg PUBLIC "-//W3C//DTD SVG 1.1//EN" "http://www.w3.org/Graphics/SVG/1.1/DTD/svg11.dtd">
<svg version="1.1" id="Capa_1" xmlns="http://www.w3.org/2000/svg" xmlns:xlink="http://www.w3.org/1999/xlink" x="0px" y="0px"
	 viewBox="0 0 437.979 437.979" style="enable-background:new 0 0 437.979 437.979;" xml:space="preserve">
<g>
	<path d="M430.479,128.144h-13.394V89.877c0-19.315-15.714-35.03-35.029-35.03H55.923c-19.315,0-35.029,15.714-35.029,35.03v38.267
		H7.5c-4.143,0-7.5,3.358-7.5,7.5v239.988c0,4.142,3.357,7.5,7.5,7.5h422.979c4.143,0,7.5-3.358,7.5-7.5V135.644
		C437.979,131.501,434.621,128.144,430.479,128.144z M35.894,89.877c0-11.044,8.985-20.03,20.029-20.03h326.133
		c11.044,0,20.029,8.985,20.029,20.03v38.267h-19.107L78.985,87.711c-4.1-0.545-7.877,2.339-8.424,6.446
		c-0.546,4.106,2.34,7.877,6.445,8.423l192.2,25.564H35.894V89.877z M28.394,143.144h394.585v37.204H15v-37.204H28.394z M15,368.131
		V195.347h407.979v172.784H15z"/>
	<path d="M90.069,207.875c-38.872,0-70.497,31.625-70.497,70.497s31.625,70.497,70.497,70.497s70.497-31.625,70.497-70.497
		S128.941,207.875,90.069,207.875z M90.069,333.869c-30.602,0-55.497-24.896-55.497-55.497s24.896-55.497,55.497-55.497
		s55.497,24.896,55.497,55.497S120.671,333.869,90.069,333.869z"/>
	<path d="M123.072,256.301c-3.814,1.616-5.597,6.018-3.981,9.832c1.643,3.878,2.476,7.996,2.476,12.24
		c0,17.367-14.13,31.497-31.497,31.497s-31.497-14.129-31.497-31.497c0-17.368,14.13-31.497,31.497-31.497
		c6.299,0,12.38,1.861,17.587,5.382c3.434,2.32,8.095,1.419,10.414-2.012c2.32-3.431,1.42-8.094-2.012-10.414
		c-7.697-5.205-16.685-7.956-25.989-7.956c-25.639,0-46.497,20.858-46.497,46.497c0,25.638,20.858,46.497,46.497,46.497
		s46.497-20.858,46.497-46.497c0-6.265-1.232-12.352-3.663-18.09C131.287,256.467,126.881,254.686,123.072,256.301z"/>
	<path d="M380.912,256.301c-3.814,1.616-5.597,6.018-3.981,9.832c1.643,3.878,2.476,7.996,2.476,12.24
		c0,17.367-14.13,31.497-31.497,31.497s-31.497-14.129-31.497-31.497c0-17.368,14.13-31.497,31.497-31.497
		c6.299,0,12.38,1.861,17.587,5.382c3.434,2.32,8.095,1.419,10.414-2.012c2.32-3.431,1.42-8.094-2.012-10.414
		c-7.697-5.205-16.685-7.956-25.989-7.956c-25.639,0-46.497,20.858-46.497,46.497c0,25.638,20.858,46.497,46.497,46.497
		s46.497-20.858,46.497-46.497c0-6.265-1.232-12.352-3.663-18.09C389.127,256.467,384.722,254.686,380.912,256.301z"/>
	<path d="M347.909,207.875c-38.872,0-70.497,31.625-70.497,70.497s31.625,70.497,70.497,70.497s70.496-31.625,70.496-70.497
		S386.781,207.875,347.909,207.875z M347.909,333.869c-30.602,0-55.497-24.896-55.497-55.497s24.896-55.497,55.497-55.497
		c30.601,0,55.496,24.896,55.496,55.497S378.51,333.869,347.909,333.869z"/>
	<path d="M259.487,237.874h-80.996c-4.143,0-7.5,3.358-7.5,7.5v95.995c0,4.142,3.357,7.5,7.5,7.5h80.996c4.143,0,7.5-3.358,7.5-7.5
		v-95.995C266.987,241.232,263.63,237.874,259.487,237.874z M251.987,252.874v49.261h-65.996v-49.261H251.987z M224.952,317.135
		v16.734h-11.926v-16.734H224.952z M185.991,317.135h12.035v16.734h-12.035V317.135z M239.952,333.869v-16.734h12.035v16.734
		H239.952z"/>
	<path d="M198.812,280.218c1.245,2.94,4.277,4.852,7.481,4.607c2.996-0.23,5.618-2.273,6.56-5.125
		c2.192-6.631-5.463-12.454-11.281-8.592C198.645,273.052,197.446,276.973,198.812,280.218
		C199.002,280.668,198.622,279.768,198.812,280.218z"/>
	<path d="M225.312,280.218c1.269,2.997,4.402,4.927,7.664,4.592c3.134-0.322,5.754-2.601,6.533-5.644
		c0.727-2.839-0.342-5.892-2.63-7.707c-2.595-2.059-6.373-2.122-9.05-0.179C225.059,273.291,224.009,277.056,225.312,280.218
		C225.502,280.668,225.122,279.758,225.312,280.218z"/>
	<path d="M35.785,173.181c4.143,0,7.5-3.358,7.5-7.5v-7.871c0-4.142-3.357-7.5-7.5-7.5s-7.5,3.358-7.5,7.5v7.871
		C28.285,169.823,31.643,173.181,35.785,173.181z"/>
	<path d="M63.99,173.181c4.143,0,7.5-3.358,7.5-7.5v-7.871c0-4.142-3.357-7.5-7.5-7.5s-7.5,3.358-7.5,7.5v7.871
		C56.49,169.823,59.848,173.181,63.99,173.181z"/>
	<path d="M92.195,173.181c4.143,0,7.5-3.358,7.5-7.5v-7.871c0-4.142-3.357-7.5-7.5-7.5s-7.5,3.358-7.5,7.5v7.871
		C84.695,169.823,88.053,173.181,92.195,173.181z"/>
	<path d="M120.4,173.181c4.143,0,7.5-3.358,7.5-7.5v-7.871c0-4.142-3.357-7.5-7.5-7.5s-7.5,3.358-7.5,7.5v7.871
		C112.9,169.823,116.258,173.181,120.4,173.181z"/>
	<path d="M148.605,173.181c4.143,0,7.5-3.358,7.5-7.5v-7.871c0-4.142-3.357-7.5-7.5-7.5s-7.5,3.358-7.5,7.5v7.871
		C141.105,169.823,144.463,173.181,148.605,173.181z"/>
	<path d="M176.811,173.181c4.143,0,7.5-3.358,7.5-7.5v-7.871c0-4.142-3.357-7.5-7.5-7.5s-7.5,3.358-7.5,7.5v7.871
		C169.311,169.823,172.668,173.181,176.811,173.181z"/>
	<path d="M205.017,173.181c4.143,0,7.5-3.358,7.5-7.5v-7.871c0-4.142-3.357-7.5-7.5-7.5s-7.5,3.358-7.5,7.5v7.871
		C197.517,169.823,200.874,173.181,205.017,173.181z"/>
	<path d="M233.222,173.181c4.143,0,7.5-3.358,7.5-7.5v-7.871c0-4.142-3.357-7.5-7.5-7.5s-7.5,3.358-7.5,7.5v7.871
		C225.722,169.823,229.079,173.181,233.222,173.181z"/>
	<path d="M261.427,173.181c4.143,0,7.5-3.358,7.5-7.5v-7.871c0-4.142-3.357-7.5-7.5-7.5s-7.5,3.358-7.5,7.5v7.871
		C253.927,169.823,257.284,173.181,261.427,173.181z"/>
	<path d="M289.632,173.181c4.143,0,7.5-3.358,7.5-7.5v-7.871c0-4.142-3.357-7.5-7.5-7.5s-7.5,3.358-7.5,7.5v7.871
		C282.132,169.823,285.489,173.181,289.632,173.181z"/>
	<path d="M317.837,173.181c4.143,0,7.5-3.358,7.5-7.5v-7.871c0-4.142-3.357-7.5-7.5-7.5s-7.5,3.358-7.5,7.5v7.871
		C310.337,169.823,313.694,173.181,317.837,173.181z"/>
	<path d="M346.042,173.181c4.143,0,7.5-3.358,7.5-7.5v-7.871c0-4.142-3.357-7.5-7.5-7.5s-7.5,3.358-7.5,7.5v7.871
		C338.542,169.823,341.899,173.181,346.042,173.181z"/>
	<path d="M374.247,173.181c4.143,0,7.5-3.358,7.5-7.5v-7.871c0-4.142-3.357-7.5-7.5-7.5s-7.5,3.358-7.5,7.5v7.871
		C366.747,169.823,370.104,173.181,374.247,173.181z"/>
	<path d="M402.452,173.181c4.143,0,7.5-3.358,7.5-7.5v-7.871c0-4.142-3.357-7.5-7.5-7.5s-7.5,3.358-7.5,7.5v7.871
		C394.952,169.823,398.31,173.181,402.452,173.181z"/>
</g>
<g>
</g>
<g>
</g>
<g>
</g>
<g>
</g>
<g>
</g>
<g>
</g>
<g>
</g>
<g>
</g>
<g>
</g>
<g>
</g>
<g>
</g>
<g>
</g>
<g>
</g>
<g>
</g>
<g>
</g>
</svg>
